<?xml version="1.0" encoding="utf-8"?>
<!-- Generator: Adobe Illustrator 24.0.0, SVG Export Plug-In . SVG Version: 6.00 Build 0)  -->
<svg version="1.1" id="Layer_1" xmlns:xodm="http://www.corel.com/coreldraw/odm/2003"
	 xmlns="http://www.w3.org/2000/svg" xmlns:xlink="http://www.w3.org/1999/xlink" x="0px" y="0px" viewBox="0 0 2316 2148.4"
	 style="enable-background:new 0 0 2316 2148.4;" xml:space="preserve">
<style type="text/css">
	.st0{fill-rule:evenodd;clip-rule:evenodd;fill:url(#SVGID_1_);}
	.st1{fill-rule:evenodd;clip-rule:evenodd;fill:url(#SVGID_2_);}
	.st2{fill-rule:evenodd;clip-rule:evenodd;fill:#4F2606;}
	.st3{fill-rule:evenodd;clip-rule:evenodd;fill:#2F1602;}
	.st4{fill-rule:evenodd;clip-rule:evenodd;fill:url(#SVGID_3_);}
	.st5{clip-path:url(#SVGID_5_);}
	.st6{clip-path:url(#SVGID_7_);}
	.st7{clip-path:url(#SVGID_9_);}
	.st8{clip-path:url(#SVGID_11_);}
</style>
<g id="Слой_x0020_1">
	
		<linearGradient id="SVGID_1_" gradientUnits="userSpaceOnUse" x1="1957.7406" y1="2779.3357" x2="974.1506" y2="1983.7856" gradientTransform="matrix(1 0 0 -1 0 3508.2852)">
		<stop  offset="0" style="stop-color:#2D1709"/>
		<stop  offset="1" style="stop-color:#B05C0E"/>
	</linearGradient>
	<path class="st0" d="M1954.4,1166.7c-3.7-25.8-9.8-55.4-28.2-95.7c-18.4-40.2-49.1-91-84.9-135.1c-35.8-44-76.7-81.3-122-110.5
		c-45.3-29.2-94.9-50.4-142-63.2c-47.1-12.8-91.6-17.2-135.8-16.1c-44.2,1.1-88,7.7-132.2,19.3c-44.2,11.7-88.7,28.5-129.3,50.8
		c-40.5,22.3-77,50-108.4,80.3c-31.4,30.3-57.7,63.2-80.7,97.1c-23,33.9-42.7,69-55.5,105.5s-18.6,74.5-23.4,111.3
		c-4.8,36.9-8.4,72.7-5.8,107c2.5,34.3,11.3,67.2,23.4,102.2s27.4,72.3,47.1,107.7c19.7,35.4,43.8,69,70.1,97.9
		c26.3,28.8,54.8,52.9,89.8,76.4c35,23.4,76.6,46.2,121.5,60.6c44.9,14.5,93.1,20.6,131.5,22.7c38.4,2,66.8-0.1,96.4,4.1
		c29.6,4.1,60.3,14.6,33.3,20.9c-27,6.3-111.7,8.5-224.9-13s-254.8-66.8-360-172.7S760.5,1352,776.9,1182.2
		c16.4-169.8,117.9-342.8,256.7-432.7c138.7-89.8,314.7-96.4,455.3-76.3c140.6,20.1,245.7,66.8,321.7,131.8
		c75.9,65,122.7,148.2,149.3,222c26.7,73.8,33.2,138,30,171.3c-3.2,33.3-16.2,35.5-23.3,25.8
		C1959.4,1214.3,1958.1,1192.4,1954.4,1166.7L1954.4,1166.7z"/>
	
		<linearGradient id="SVGID_2_" gradientUnits="userSpaceOnUse" x1="593.5065" y1="1943.2124" x2="325.8665" y2="1509.3525" gradientTransform="matrix(1 0 0 -1 0 3508.2852)">
		<stop  offset="0" style="stop-color:#7C3F06"/>
		<stop  offset="1" style="stop-color:#69390F"/>
	</linearGradient>
	<path class="st1" d="M288.2,1981.5c3.2-0.1,3.2-0.1,16.8,0.4c13.6,0.5,40.9,1.5,62.7-0.7s38.3-7.7,52.1-14.6
		c13.9-6.8,25.2-15.1,38.4-29.1c13.2-14.1,28.4-34,47.6-64.5c19.2-30.6,42.3-71.8,65-112.4c22.6-40.5,44.7-80.3,56-102.2
		c11.2-21.9,11.6-25.9,10.6-41.7c-1-15.8-3.4-43.4-10-58.7c-6.6-15.3-17.3-18.4-33.4-16.1c-16.1,2.3-37.4,9.9-84,58.8
		c-46.6,48.8-118.3,138.8-165.2,205.6c-46.9,66.8-69,110.4-77,135.8c-8,25.4-1.8,32.5,4.5,36C278.7,1981.7,285,1981.6,288.2,1981.5z
		"/>
	<path class="st2" d="M74.8,1044.5c1.9,1.3,1.9,1.3,16.2,9c14.4,7.7,43.1,23,66.2,32.8s40.7,14.2,55.1,16.8
		c14.4,2.6,25.7,3.3,43.8,0c18.1-3.3,42.9-10.6,76.3-21.7c33.4-11.1,75.4-26.1,109.9-37.4c34.5-11.3,61.5-19,83.4-25
		c21.9-6,38.7-10.4,63-25.7c24.3-15.3,56-41.6,64.8-69.2c8.8-27.6-5.5-56.4-82.3-55.7c-76.9,0.7-216.3,31-311.8,59.5
		c-95.5,28.5-147,55.1-173.9,71.5c-26.9,16.3-29.3,22.3-28.5,27.1c0.8,4.7,4.6,8.1,8.4,11.2C69.2,1040.6,72.9,1043.2,74.8,1044.5
		L74.8,1044.5z"/>
	<path class="st3" d="M701.6,178.9c-35.6-1.7-34.8,6.7-34.3,14c0.5,7.4,0.7,13.8,8.5,30.4c7.8,16.7,23.1,43.6,41.1,69
		c18,25.4,38.6,49.3,57.3,65c18.7,15.7,35.5,23.2,65.1,38.3c29.6,15.1,71.9,37.7,97,51.5c25,13.8,32.7,18.7,58.3,24.9
		c25.6,6.2,69,13.7,97.6,0.7c28.6-13,42.5-46.6,4.9-94.8c-37.6-48.2-126.7-111-207.3-148.3C809.3,192.3,737.2,180.6,701.6,178.9
		L701.6,178.9z"/>
	
		<radialGradient id="SVGID_3_" cx="3829.9863" cy="-300.5749" r="437.11" gradientTransform="matrix(-2.0851 -0.6742 -0.6418 1.9849 10055.5693 4131.7544)" gradientUnits="userSpaceOnUse">
		<stop  offset="0" style="stop-color:#EC9643"/>
		<stop  offset="1" style="stop-color:#B86111"/>
	</radialGradient>
	<path class="st4" d="M179.9,1061.6c-11.6,2.9-21.8,4.5-33.8,4.5c-75,0-135.8-64.7-135.8-144.6c0-35.4,14-69.5,32.9-97.6
		c10.6-15.8,32.8-41.4,67.9-57.8l937.4-319.9c-68.1-33.6-308.9-139-348.6-184.9l0,0v0c-21.6-25-34-57.2-34.6-92.4
		C663.6,81.8,746.9,11.5,842,20.8c11.4,1.1,21.3,2.4,30.8,5.9c97.8,36.1,231.6,105,387.1,173.1c123.3,54,229.2,104.9,341.9,152.5
		c414.3,175,706.9,389.6,706.9,899.1c0,583-552.2,1011.2-1117.7,858.5c-117.6-31.7-229.2-86.6-325.1-161.7
		c-90.4-70.8-179.8-166.4-227-272.2c-19.2-43.1-30.3-84.4-35.8-105c-4-14.8-5.1-19-6.1-19.6L408.1,1901
		c-29.6,54.3-66.8,80.9-130.3,80.9c-64.3,0-146.7-45.4-152.5-147.9c-1.3-22.9,3.4-60.8,14.5-82.1l472.6-831.5
		C473.2,965.9,319.3,1023.6,179.9,1061.6L179.9,1061.6z M1399.4,683c310,0,561.3,247.6,561.3,553.1c0,305.5-251.3,553.1-561.3,553.1
		S838,1541.6,838,1236.1C838,930.7,1089.3,683,1399.4,683z"/>
	<g id="_2980100280496">
		<g>
			<defs>
				<rect id="SVGID_4_" x="2.9" y="12.6" width="2313.2" height="2135.8"/>
			</defs>
			<clipPath id="SVGID_5_">
				<use xlink:href="#SVGID_4_"  style="overflow:visible;"/>
			</clipPath>
			<g class="st5">
			</g>
		</g>
	</g>
	<g id="_2980100278048">
		<g>
			<defs>
				<rect id="SVGID_6_" x="1976.1" y="553.8" width="325.9" height="1226"/>
			</defs>
			<clipPath id="SVGID_7_">
				<use xlink:href="#SVGID_6_"  style="overflow:visible;"/>
			</clipPath>
			<g class="st6">
			</g>
		</g>
	</g>
	<g id="_2980100276464">
		<g>
			<defs>
				<rect id="SVGID_8_" x="824.7" y="741.8" width="301.5" height="911"/>
			</defs>
			<clipPath id="SVGID_9_">
				<use xlink:href="#SVGID_8_"  style="overflow:visible;"/>
			</clipPath>
			<g class="st7">
			</g>
		</g>
	</g>
	<g id="_2980100277952">
		<g>
			<defs>
				<rect id="SVGID_10_" x="266.8" y="1537.2" width="340" height="454.9"/>
			</defs>
			<clipPath id="SVGID_11_">
				<use xlink:href="#SVGID_10_"  style="overflow:visible;"/>
			</clipPath>
			<g class="st8">
			</g>
		</g>
	</g>
</g>
</svg>
